<svg width="32" height="31" viewBox="0 0 32 31" fill="none" xmlns="http://www.w3.org/2000/svg">
<path fill-rule="evenodd" clip-rule="evenodd" d="M2.42188 22.3518C2.42188 22.6067 2.52313 22.8511 2.70334 23.0313C2.88355 23.2115 3.12796 23.3127 3.38282 23.3127H26.0475L19.9994 29.359C19.8189 29.5394 19.7175 29.7841 19.7175 30.0393C19.7175 30.2945 19.8189 30.5392 19.9994 30.7196C20.1798 30.9001 20.4245 31.0014 20.6797 31.0014C20.9349 31.0014 21.1796 30.9001 21.36 30.7196L29.0475 23.0321C29.137 22.9429 29.208 22.8368 29.2565 22.7201C29.3049 22.6033 29.3298 22.4782 29.3298 22.3518C29.3298 22.2254 29.3049 22.1002 29.2565 21.9835C29.208 21.8668 29.137 21.7607 29.0475 21.6715L21.36 13.984C21.1796 13.8035 20.9349 13.7021 20.6797 13.7021C20.4245 13.7021 20.1798 13.8035 19.9994 13.984C19.8189 14.1644 19.7175 14.4091 19.7175 14.6643C19.7175 14.9195 19.8189 15.1642 19.9994 15.3446L26.0475 21.3909H3.38282C3.12796 21.3909 2.88355 21.4921 2.70334 21.6723C2.52313 21.8525 2.42188 22.0969 2.42188 22.3518ZM29.3281 8.89867C29.3281 9.15353 29.2269 9.39795 29.0467 9.57816C28.8665 9.75837 28.6221 9.85961 28.3672 9.85961H5.70252L11.7507 15.9058C11.84 15.9952 11.9109 16.1012 11.9592 16.218C12.0076 16.3347 12.0325 16.4598 12.0325 16.5862C12.0325 16.7125 12.0076 16.8376 11.9592 16.9544C11.9109 17.0711 11.84 17.1772 11.7507 17.2665C11.6613 17.3559 11.5553 17.4267 11.4385 17.4751C11.3218 17.5234 11.1967 17.5483 11.0703 17.5483C10.944 17.5483 10.8189 17.5234 10.7021 17.4751C10.5854 17.4267 10.4793 17.3559 10.39 17.2665L2.70248 9.57902C2.61299 9.48976 2.54199 9.38372 2.49355 9.26697C2.4451 9.15023 2.42017 9.02507 2.42017 8.89867C2.42017 8.77228 2.4451 8.64712 2.49355 8.53038C2.54199 8.41363 2.61299 8.30759 2.70248 8.21833L10.39 0.530831C10.5704 0.350393 10.8151 0.249023 11.0703 0.249023C11.3255 0.249023 11.5702 0.350393 11.7507 0.530831C11.9311 0.711269 12.0325 0.955996 12.0325 1.21117C12.0325 1.46635 11.9311 1.71108 11.7507 1.89152L5.70252 7.93774H28.3672C28.6221 7.93774 28.8665 8.03898 29.0467 8.21919C29.2269 8.3994 29.3281 8.64382 29.3281 8.89867Z" fill="black"/>
</svg>
