<svg width="32" height="32" viewBox="0 0 32 32" fill="none" xmlns="http://www.w3.org/2000/svg">
<path d="M0.5 7.47656C0.5 6.71199 0.803724 5.97874 1.34436 5.43811C1.88499 4.89747 2.61824 4.59375 3.38281 4.59375H20.6797C21.4443 4.59375 22.1775 4.89747 22.7181 5.43811C23.2588 5.97874 23.5625 6.71199 23.5625 7.47656V10.3594H25.5228C25.9547 10.3598 26.381 10.4572 26.7703 10.6445C27.1595 10.8318 27.5016 11.1041 27.7714 11.4414L30.6177 14.9969C31.0272 15.5084 31.2503 16.1443 31.25 16.7996V20.9297C31.25 21.6943 30.9463 22.4275 30.4056 22.9681C29.865 23.5088 29.1318 23.8125 28.3672 23.8125H27.4062C27.4062 24.8319 27.0013 25.8096 26.2804 26.5304C25.5596 27.2513 24.5819 27.6562 23.5625 27.6562C22.5431 27.6562 21.5654 27.2513 20.8446 26.5304C20.1237 25.8096 19.7188 24.8319 19.7188 23.8125H10.1094C10.1105 24.3248 10.0091 24.8322 9.81134 25.3048C9.61352 25.7775 9.32322 26.2058 8.9575 26.5646C8.59177 26.9234 8.15801 27.2054 7.6817 27.3942C7.20539 27.5829 6.69616 27.6746 6.18393 27.6637C5.67171 27.6528 5.16682 27.5396 4.69897 27.3308C4.23112 27.122 3.80973 26.8217 3.45959 26.4477C3.10944 26.0737 2.83761 25.6334 2.66006 25.1528C2.48251 24.6722 2.40284 24.161 2.42572 23.6491C1.8627 23.451 1.37507 23.0829 1.03014 22.5958C0.685203 22.1087 0.499968 21.5266 0.5 20.9297L0.5 7.47656ZM2.98691 21.8061C3.33438 21.2372 3.82391 20.7685 4.40736 20.4461C4.99082 20.1237 5.64813 19.9586 6.31469 19.9671C6.98125 19.9757 7.63411 20.1575 8.20913 20.4947C8.78414 20.832 9.26151 21.313 9.59431 21.8906H20.2338C20.5719 21.3069 21.0569 20.8219 21.6406 20.4838V7.47656C21.6406 7.22171 21.5394 6.97729 21.3592 6.79708C21.179 6.61687 20.9345 6.51562 20.6797 6.51562H3.38281C3.12796 6.51562 2.88354 6.61687 2.70333 6.79708C2.52312 6.97729 2.42188 7.22171 2.42188 7.47656V20.9297C2.42172 21.1146 2.47496 21.2957 2.57518 21.4512C2.67541 21.6066 2.81837 21.7299 2.98691 21.8061ZM23.5625 19.9687C24.2372 19.9688 24.9 20.1464 25.4843 20.4837C26.0686 20.8211 26.5538 21.3063 26.8912 21.8906H28.3672C28.622 21.8906 28.8665 21.7894 29.0467 21.6092C29.2269 21.429 29.3281 21.1845 29.3281 20.9297V16.7977C29.3277 16.5796 29.2532 16.3681 29.1167 16.198L26.2723 12.6426C26.1825 12.53 26.0685 12.4391 25.9387 12.3766C25.809 12.314 25.6668 12.2815 25.5228 12.2812H23.5625V19.9687ZM6.26562 21.8906C5.75591 21.8906 5.26708 22.0931 4.90665 22.4535C4.54623 22.8139 4.34375 23.3028 4.34375 23.8125C4.34375 24.3222 4.54623 24.811 4.90665 25.1715C5.26708 25.5319 5.75591 25.7344 6.26562 25.7344C6.77534 25.7344 7.26417 25.5319 7.6246 25.1715C7.98502 24.811 8.1875 24.3222 8.1875 23.8125C8.1875 23.3028 7.98502 22.8139 7.6246 22.4535C7.26417 22.0931 6.77534 21.8906 6.26562 21.8906ZM23.5625 21.8906C23.0528 21.8906 22.564 22.0931 22.2035 22.4535C21.8431 22.8139 21.6406 23.3028 21.6406 23.8125C21.6406 24.3222 21.8431 24.811 22.2035 25.1715C22.564 25.5319 23.0528 25.7344 23.5625 25.7344C24.0722 25.7344 24.561 25.5319 24.9215 25.1715C25.2819 24.811 25.4844 24.3222 25.4844 23.8125C25.4844 23.3028 25.2819 22.8139 24.9215 22.4535C24.561 22.0931 24.0722 21.8906 23.5625 21.8906Z" fill="black"/>
</svg>
