<svg width="32" height="31" viewBox="0 0 32 31" fill="none" xmlns="http://www.w3.org/2000/svg">
<path d="M0.5 7.9375C0.5 6.91807 0.904965 5.9404 1.62581 5.21956C2.34665 4.49872 3.32432 4.09375 4.34375 4.09375H27.4062C28.4257 4.09375 29.4033 4.49872 30.1242 5.21956C30.845 5.9404 31.25 6.91807 31.25 7.9375V23.3125C31.25 24.3319 30.845 25.3096 30.1242 26.0304C29.4033 26.7513 28.4257 27.1562 27.4062 27.1562H4.34375C3.32432 27.1562 2.34665 26.7513 1.62581 26.0304C0.904965 25.3096 0.5 24.3319 0.5 23.3125V7.9375ZM4.34375 6.01562C3.83404 6.01562 3.3452 6.21811 2.98478 6.57853C2.62436 6.93895 2.42188 7.42779 2.42188 7.9375V9.85938H29.3281V7.9375C29.3281 7.42779 29.1256 6.93895 28.7652 6.57853C28.4048 6.21811 27.916 6.01562 27.4062 6.01562H4.34375ZM29.3281 13.7031H2.42188V23.3125C2.42188 23.8222 2.62436 24.311 2.98478 24.6715C3.3452 25.0319 3.83404 25.2344 4.34375 25.2344H27.4062C27.916 25.2344 28.4048 25.0319 28.7652 24.6715C29.1256 24.311 29.3281 23.8222 29.3281 23.3125V13.7031Z" fill="black"/>
<path d="M4.34375 19.4688C4.34375 18.959 4.54623 18.4702 4.90665 18.1098C5.26708 17.7494 5.75591 17.5469 6.26562 17.5469H8.1875C8.69721 17.5469 9.18605 17.7494 9.54647 18.1098C9.90689 18.4702 10.1094 18.959 10.1094 19.4688V21.3906C10.1094 21.9003 9.90689 22.3892 9.54647 22.7496C9.18605 23.11 8.69721 23.3125 8.1875 23.3125H6.26562C5.75591 23.3125 5.26708 23.11 4.90665 22.7496C4.54623 22.3892 4.34375 21.9003 4.34375 21.3906V19.4688Z" fill="black"/>
</svg>
