<svg width="76" height="86" viewBox="0 0 76 86" fill="none" xmlns="http://www.w3.org/2000/svg">
<path d="M38.1305 11.6104L34.0521 14.8477C31.4812 16.8949 30.4338 20.3068 31.4177 23.449L37.6703 43.3652C37.6703 43.3652 37.6703 43.3652 37.6862 43.3652H37.8925C37.8925 43.3652 37.9083 43.3652 37.9083 43.3493V27.2418C37.9083 27.2418 37.9084 27.2259 37.8925 27.2259C37.464 27.1148 37.1625 26.7181 37.1942 26.242C37.226 25.7818 37.6703 25.3692 38.1146 25.3692C38.6383 25.3692 39.0668 25.7818 39.0668 26.3055C39.0668 26.734 38.7653 27.0989 38.3686 27.21C38.3686 27.21 38.3527 27.21 38.3527 27.2259V43.3652C38.3527 43.3652 38.3527 43.381 38.3686 43.381H38.5749H38.5907L44.8433 23.4648C45.8272 20.3227 44.7798 16.9108 42.209 14.8636L38.1305 11.6262C38.1305 11.6104 38.1305 11.6104 38.1305 11.6104Z" fill="#333333"/>
<path d="M14.4056 66.7885C14.469 66.852 14.5008 66.8996 14.5008 66.9313C14.5008 66.9631 14.4373 66.9948 14.3262 66.9948C5.53453 67.7089 1.10695 68.1374 1.0276 68.2485L0.25 67.6137L7.08974 67.0583V65.7411C5.15366 65.9315 3.91585 66.0902 3.40802 66.2331L2.63042 65.5983L7.08974 65.2016V63.7257L3.34455 64.0431C3.34455 64.5192 3.28107 64.7572 3.16998 64.7572C3.13824 64.7572 3.09063 64.7413 3.07476 64.6937L2.42411 63.9637C2.58281 63.7733 2.66216 63.5035 2.66216 63.1703C2.66216 62.8529 2.66215 62.5672 2.64629 62.3292L2.56694 61.012C2.5352 60.5201 2.42412 59.7742 2.23368 58.7586L2.45585 58.6316L3.13824 59.917L11.9775 59.0601L12.4695 58.3618L13.263 59.0918C13.3106 59.1394 13.3423 59.187 13.3423 59.2188C13.3423 59.2505 13.2947 59.2981 13.1836 59.3616C13.0725 59.4251 12.9932 59.5362 12.9138 59.6631C12.8345 59.8059 12.771 60.044 12.7234 60.3931L12.406 62.4085L12.7869 62.9322C12.8345 62.9957 12.8662 63.0433 12.8662 63.075C12.8662 63.1068 12.8027 63.1385 12.6917 63.1385L7.788 63.6146V65.0905C9.94624 64.8842 11.2793 64.6937 11.7554 64.535L12.2156 65.027C12.2632 65.0905 12.2949 65.1539 12.2949 65.1857C12.2949 65.2174 12.2156 65.2492 12.041 65.265L7.80386 65.6459V66.9631C11.4856 66.6615 13.4851 66.3759 13.8025 66.1061L14.4056 66.7885ZM14.3103 74.6915C14.3738 74.755 14.4056 74.8026 14.4056 74.8343C14.4056 74.8661 14.358 74.8819 14.2627 74.8819C9.99385 75.0724 6.86757 75.2469 4.85215 75.3739C2.83672 75.5008 1.66238 75.6437 1.31325 75.7865L0.376954 75.0565L6.96278 74.6756V72.7078C4.7728 72.8982 3.50324 73.0252 3.18585 73.1204L2.47173 72.4222L6.97865 72.1206V71.708C6.97865 70.5813 6.83583 69.7402 6.56605 69.1848L6.81996 69.0261L7.91495 70.1211C7.96256 70.1687 7.9943 70.2163 7.9943 70.248C7.9943 70.2798 7.97843 70.3115 7.96256 70.3433C7.78799 70.6289 7.70865 71.2161 7.70865 72.073C9.53364 71.9461 10.8349 71.7239 11.6125 71.4383L12.3267 72.0572C12.3743 72.1048 12.406 72.1524 12.406 72.1682C12.406 72.1841 12.3743 72.2 12.2791 72.2159L7.69278 72.6285V74.6439C11.2634 74.4535 13.2153 74.2313 13.5645 73.9615L14.3103 74.6915ZM2.26542 68.6928C2.26542 69.2165 2.21781 69.6767 2.12259 70.1052C2.02738 70.5337 1.90042 70.8987 1.70999 71.232C1.53542 71.5493 1.36086 71.8033 1.1863 71.9461C1.01173 72.1048 0.900646 72.1682 0.853038 72.1682C0.805429 72.1682 0.773689 72.0889 0.75782 71.9461L0.662602 70.9622C1.05934 70.6765 1.36086 70.375 1.55129 70.0417C1.74173 69.7085 1.88455 69.2483 1.99564 68.6611H2.26542V68.6928ZM7.10561 63.1703V60.1392L3.18585 60.5201L3.36041 63.5194L7.10561 63.1703ZM5.80431 62.234C5.74084 62.5514 5.64562 62.8211 5.5504 63.0274C5.45518 63.2337 5.35997 63.329 5.31236 63.329C5.26475 63.329 5.21714 63.2814 5.16953 63.1861L4.2015 61.0914L4.39193 60.9168L5.80431 62.234ZM5.62975 70.2639C5.58214 70.4226 5.48692 70.613 5.34409 70.8193C5.20127 71.0256 5.12192 71.1209 5.05845 71.1209C5.01084 71.1209 4.96323 71.0574 4.93149 70.9463L4.36019 68.6452L4.59823 68.55L5.62975 70.2639ZM9.45429 59.9329L7.788 60.0916V63.0909L8.64495 62.9957C9.20038 61.5516 9.48603 60.6153 9.48603 60.1709C9.47016 60.0916 9.47016 60.0122 9.45429 59.9329ZM10.0256 69.6926C9.96211 70.1052 9.86689 70.4067 9.75581 70.613C9.64472 70.8193 9.56538 70.9146 9.51777 70.9146C9.47016 70.9146 9.42255 70.8511 9.3432 70.74L8.15299 68.2961L8.34343 68.1533L10.0256 69.6926ZM12.0886 59.6631L9.75581 59.8853L10.3271 60.774C10.3588 60.8375 10.3906 60.9009 10.3906 60.9485C10.3906 60.9961 10.3588 61.0596 10.2954 61.1231C10.1049 61.3135 9.69233 61.9324 9.08929 62.9322L11.7395 62.6466L12.0886 59.6631ZM14.2151 70.0735C14.2151 70.5972 14.1675 70.9622 14.0882 71.2002C14.0088 71.4383 13.9453 71.5493 13.8977 71.5493C13.8501 71.5493 13.8184 71.5176 13.7708 71.47L11.3586 68.0898L11.5491 67.9311L14.2151 70.0735Z" fill="#333333"/>
<path d="M24.8473 62.1068C22.3082 62.3289 20.9593 62.5035 20.7847 62.6305L19.9278 61.9481C23.911 61.6783 26.0534 61.4085 26.3549 61.1387L27.069 61.71C27.1166 61.7418 27.1484 61.7894 27.1484 61.837C27.1484 61.8846 27.1166 61.9005 27.0214 61.9163L25.2123 62.075L25.7677 62.7098C25.8153 62.7733 25.8471 62.8368 25.8471 62.8685C25.8471 62.9002 25.8153 62.9479 25.7677 63.0113C25.5297 63.2494 25.1171 64.0905 24.5458 65.5346C25.3551 65.4552 25.9423 65.3124 26.2914 65.122L26.9897 65.6774C27.0532 65.725 27.0849 65.7726 27.0849 65.8202C27.0849 65.8678 27.0214 65.8837 26.8945 65.8996C22.9271 66.2011 20.5784 66.5026 19.8643 66.7724L18.9597 66.0424L24.0379 65.5822C24.6251 64.1063 24.879 62.9479 24.8473 62.1068ZM21.5941 68.3276L24.879 67.9309L25.4027 67.1374L26.1803 67.788C26.2279 67.8198 26.2597 67.8674 26.2597 67.915C26.2597 67.9626 26.2121 68.0261 26.1169 68.0896C26.0216 68.153 25.9423 68.3117 25.8947 68.5339C25.8471 68.7561 25.8153 69.01 25.7995 69.2798L25.5614 72.8821C25.4503 74.485 25.3234 75.2943 25.1805 75.2943C25.1488 75.2943 25.0853 75.2308 25.0219 75.1039L24.4664 74.0406L21.8321 74.3421C21.848 74.9928 21.848 75.4054 21.8162 75.5641C21.7845 75.7228 21.7528 75.8021 21.7051 75.8021C21.6575 75.8021 21.5941 75.7545 21.5464 75.6593L20.8323 74.3421C21.0862 74.0723 21.1973 73.501 21.1656 72.5965L21.0862 69.3909C21.0704 68.4387 21.0069 67.7087 20.8641 67.2167L21.1497 67.1215L21.5941 68.3276ZM22.8954 64.63C22.8001 64.8839 22.7049 65.1061 22.578 65.2965C22.451 65.487 22.3717 65.5822 22.324 65.5822C22.2764 65.5822 22.2447 65.5346 22.213 65.4394L21.4988 62.9637L21.721 62.8685L22.8954 64.63ZM21.7369 70.7715C22.689 70.6604 23.3873 70.5017 23.7999 70.2796L24.4347 70.7556C24.514 70.8032 24.5616 70.8509 24.5616 70.8826C24.5616 70.9143 24.5299 70.9461 24.4347 70.9461L21.7527 71.3269L21.8162 73.8026C22.9271 73.7074 23.6412 73.5487 23.9586 73.3265L24.5934 73.6915C24.7679 73.4693 24.879 72.9456 24.9266 72.1204L25.1488 68.5339L21.6893 68.9306L21.7369 70.7715ZM24.6093 59.9327C24.5616 60.25 24.4664 60.5198 24.3236 60.7579C24.1966 60.9959 24.1014 61.107 24.0379 61.107C23.9745 61.107 23.9427 61.0753 23.911 60.98L22.7525 58.1077L22.9747 57.9648L24.6093 59.9327ZM29.8462 73.4058C29.8779 73.5487 29.8303 73.6439 29.7033 73.6915C29.5129 73.755 29.1955 73.9771 28.7194 74.3739C28.2434 74.7547 27.7355 75.1197 27.1801 75.4371C26.6247 75.7545 25.7995 76.1671 24.6886 76.6432L24.5299 76.3099C27.6245 74.596 29.1797 73.263 29.2273 72.3267L29.4177 72.3108L29.8462 73.4058ZM28.2434 72.1045C28.2434 72.7552 28.1958 73.0884 28.1005 73.0884C28.0688 73.0884 28.0212 73.0567 27.9577 72.9615L27.2436 71.8189C27.3864 71.5808 27.4816 71.3428 27.5292 71.1048C27.5768 70.8667 27.5927 70.4382 27.5768 69.8352L27.4975 66.5661C27.4816 65.7409 27.4023 64.9791 27.2595 64.2968L27.4975 64.2333L27.9894 65.3918L33.0201 64.8205L33.512 64.1063L34.3214 64.8205C34.3531 64.8522 34.3848 64.8998 34.3848 64.9474C34.3848 64.995 34.3531 65.0268 34.3055 65.0744C34.1309 65.2013 34.0198 65.36 33.9564 65.5663C33.8929 65.7726 33.8612 66.0741 33.8453 66.4391L33.6866 70.0098C33.639 71.073 33.5596 71.7713 33.4644 72.1204C33.3692 72.4695 33.2898 72.6441 33.2264 72.6441C33.1946 72.6441 33.1629 72.6124 33.1312 72.5489L32.5599 71.6285L28.2434 72.1045ZM28.7988 63.6302C28.8305 64.4555 28.7829 64.8681 28.6718 64.8681C28.6401 64.8681 28.5925 64.8363 28.5766 64.7887L27.9577 63.6937C28.0847 63.4239 28.1481 63.0431 28.1323 62.5352L28.1005 60.8055C28.0847 60.2818 28.0053 59.7105 27.8625 59.0757L28.1005 58.9805L28.5925 60.2342L32.7662 59.6946L33.2422 58.9964L34.0833 59.7264C34.1151 59.7581 34.1468 59.7898 34.1468 59.8533C34.1468 59.9168 34.1151 59.9485 34.0516 59.9961C33.7659 60.2024 33.5914 60.504 33.5596 60.8848L33.4168 62.3924L33.9722 62.8368C34.0357 62.8844 34.0675 62.9479 34.0675 62.9955C34.0675 63.0431 34.004 63.0748 33.8929 63.0907L28.7988 63.6302ZM28.2275 69.9622L28.2434 71.5808C30.4016 71.3587 31.6394 71.1365 31.9409 70.8985L32.6551 71.3904C32.8931 71.0254 33.0201 70.47 33.0518 69.74L33.2264 65.3759L28.1481 65.9472V67.5024C30.4016 67.2644 31.6236 67.058 31.814 66.8676L32.4329 67.3437C32.4805 67.3754 32.5122 67.423 32.5122 67.4707C32.5122 67.5183 32.4805 67.5341 32.3853 67.55L28.164 68.0102L28.1799 69.4385C30.3223 69.248 31.5442 69.0576 31.8775 68.8672L32.5281 69.3591C32.5598 69.3909 32.5916 69.4226 32.5916 69.4543C32.5916 69.4861 32.5599 69.5178 32.4646 69.5337L28.2275 69.9622ZM28.7671 60.742L28.7829 63.0748L32.7662 62.5987L32.909 60.25L28.7671 60.742ZM34.8133 74.5802C34.8451 75.5006 34.8451 76.0243 34.8292 76.1195C34.8133 76.2147 34.7657 76.2623 34.6864 76.2623C34.607 76.2623 34.5594 76.2306 34.5118 76.1354C34.2261 75.6593 33.7501 75.0563 33.1153 74.358C32.4805 73.6439 31.7664 72.9615 31.0046 72.2791L31.1951 72.0411L34.8133 74.5802Z" fill="#333333"/>
<path d="M46.9855 60.742L44.7003 60.9642V65.4076C45.0971 65.2965 45.4621 65.1696 45.8112 65.0268L46.1286 65.5663C46.1762 65.6457 46.2079 65.7091 46.2079 65.7409C46.2079 65.7726 46.1762 65.8044 46.081 65.8044L44.6845 66.0265V72.66C44.6845 74.2469 44.621 75.2626 44.5099 75.6752C44.3988 76.0878 44.2718 76.3099 44.1449 76.3099C44.1132 76.3099 44.0656 76.2782 44.0021 76.183C43.2403 75.1832 42.4627 74.2628 41.6375 73.4217L41.7803 73.2313L43.764 74.5484C43.891 74.3739 43.9386 73.3582 43.9386 71.5015V67.3278C43.3197 68.4228 42.4945 69.5496 41.463 70.6922C40.4314 71.8348 39.4634 72.7234 38.5747 73.3424L38.3843 73.025C40.6536 71.0413 42.431 68.7402 43.7482 66.1376L42.193 66.3757C41.6851 66.4391 41.3043 66.6137 41.0186 66.8676C40.9234 66.947 40.8599 66.9946 40.8282 66.9946C40.7964 66.9946 40.7647 66.9787 40.7171 66.9311L40.1934 66.3757C40.5108 66.2487 40.7806 65.8202 41.0027 65.0585C41.2249 64.2968 41.336 63.5668 41.336 62.8844C41.336 62.6622 41.3201 62.4718 41.3043 62.3131L41.4788 62.2179L42.3199 63.0907C42.3516 63.1224 42.3834 63.17 42.3834 63.2176C42.3834 63.2652 42.3675 63.297 42.3199 63.3446C42.0819 63.6144 41.8914 64.0746 41.7486 64.757L41.5106 65.8996L43.9862 65.5663V61.0911C42.9706 61.2022 42.066 61.3609 41.2408 61.5672L40.2886 60.8055C43.4942 60.615 45.4938 60.3294 46.2555 59.9644L46.9697 60.5674C47.0331 60.615 47.0649 60.6626 47.0649 60.6944C47.0807 60.7103 47.049 60.7261 46.9855 60.742ZM55.7455 73.5011C55.8248 73.5645 55.8724 73.6121 55.8724 73.6439C55.8724 73.6756 55.8248 73.6915 55.7296 73.7074C51.6829 73.9613 49.3183 74.1517 48.6201 74.3104L48.2392 73.9771C48.2392 74.8341 48.2075 75.4689 48.1599 75.8656C48.1123 76.2623 48.0488 76.4686 48.0012 76.4686C47.9536 76.4686 47.906 76.421 47.8584 76.3258L47.1601 74.9452C47.414 74.6278 47.541 74.0882 47.541 73.3106V64.6141C46.9697 65.6298 46.3984 66.4391 45.8429 67.0422L45.589 66.82C46.4936 65.6298 47.2553 64.1539 47.8901 62.3924C48.5249 60.6309 48.8423 59.3614 48.8423 58.552C48.8423 58.4251 48.8264 58.314 48.8105 58.2346L49.0486 58.1553L49.8262 59.5835C49.8579 59.6629 49.8896 59.7264 49.8896 59.7581C49.8896 59.7898 49.8579 59.8374 49.8103 59.9009C49.5564 60.2183 49.3342 60.6468 49.112 61.1705C48.9057 61.6942 48.6042 62.3607 48.2392 63.1859C49.6992 63.0589 50.937 62.9161 51.9368 62.7733C52.9366 62.6305 53.6348 62.4559 54.0316 62.2179L54.6663 62.8368C54.7298 62.9002 54.7616 62.9479 54.7616 62.9796C54.7616 63.0113 54.7298 63.0431 54.6346 63.0431L51.5718 63.3763V66.0265C52.5716 65.852 53.2381 65.6933 53.5872 65.5505L54.2855 66.1852C54.349 66.2487 54.3807 66.2963 54.3807 66.328C54.3807 66.3598 54.349 66.3757 54.2855 66.3915L51.5718 66.6454V69.4385C52.6827 69.2798 53.3968 69.0893 53.6983 68.883L54.4283 69.5654C54.4918 69.613 54.5235 69.6606 54.5235 69.6924C54.5235 69.7241 54.4918 69.74 54.3966 69.7559L51.5559 70.0574V73.3582C53.3968 73.1995 54.4918 72.9932 54.8409 72.7393L55.7455 73.5011ZM50.8894 73.4217V70.1367C50.0642 70.2002 49.4136 70.3113 48.9375 70.4541L48.2868 69.8193L50.8894 69.5337V66.7248C50.1118 66.7883 49.4294 66.8994 48.874 67.0581L48.271 66.4391L50.8736 66.1217V63.4715C50.0166 63.5509 49.2866 63.6778 48.6836 63.8683L48.2233 63.5826V73.6121L50.8894 73.4217ZM52.2225 60.6785C52.159 61.0118 52.0479 61.3133 51.9051 61.5672C51.7622 61.837 51.667 61.9639 51.6194 61.9639C51.5718 61.9639 51.5401 61.9322 51.5083 61.837L50.5562 58.5679L50.7783 58.4409L52.2225 60.6785Z" fill="#333333"/>
<path d="M67.5524 71.9617C71.1865 71.6761 73.3924 71.3587 74.1382 71.0254L74.9793 71.6285C75.0904 71.7078 75.138 71.7713 75.138 71.803C75.138 71.8348 75.0587 71.8665 74.9159 71.8824L67.5524 72.5171C67.5524 74.6913 67.5207 75.9926 67.4889 76.4052C67.4413 76.8178 67.3937 77.0399 67.3303 77.0399C67.2668 77.0399 67.2033 76.9765 67.1398 76.8495L66.4416 75.5482C66.7272 75.215 66.8859 74.231 66.8859 72.5806C63.1883 72.898 61.2205 73.1043 61.0142 73.2154L59.9033 72.4854L66.8859 72.0093V70.5811C64.8705 70.7715 63.6803 70.9302 63.3153 71.073L62.4583 70.3906L66.87 70.0098V68.5974C65.0927 68.7878 63.9501 68.9624 63.4264 69.1211L62.617 68.5022L66.87 68.042V66.8041C62.9344 67.185 60.5857 67.5024 59.824 67.7404L58.8401 67.0422L66.87 66.2487V65.0585C64.6483 65.3124 63.474 65.487 63.3629 65.5822L62.5535 64.9315L66.87 64.4872C66.87 63.5509 66.7907 62.932 66.632 62.6146L66.8066 62.4718L67.2668 62.9161C68.5681 60.9324 69.2028 59.3614 69.1711 58.1711L69.3933 58.0918L70.0281 59.2027C70.0598 59.2503 70.0915 59.2979 70.0915 59.3455C70.0915 59.3931 70.0598 59.4566 69.9646 59.5359C69.8535 59.647 69.5202 60.1707 68.9648 61.1229C71.5515 60.8055 73.1385 60.4881 73.7256 60.1866L74.535 60.7261C74.6461 60.7896 74.6937 60.8531 74.6937 60.9007C74.6937 60.9483 74.6302 60.98 74.4874 60.9959L70.647 61.4561L72.1863 62.6146C72.2022 62.8368 72.1704 63.0907 72.1228 63.3446C72.0752 63.5985 72.0117 63.7413 71.9641 63.7413C71.9165 63.7413 71.8848 63.7255 71.8531 63.6779L70.2344 61.5037L68.5998 61.6942C68.4094 61.9798 68.0285 62.44 67.4889 63.1065L67.6794 63.297C67.727 63.3446 67.7587 63.3922 67.7587 63.4398C67.7587 63.4874 67.7429 63.5192 67.727 63.5826C67.6 63.8207 67.5366 64.0905 67.5366 64.392L70.5835 64.0746L70.9167 63.4557L71.7261 64.0746C71.7737 64.1063 71.8054 64.1539 71.8054 64.2015C71.8054 64.2492 71.7578 64.2968 71.6626 64.3761C71.5674 64.4555 71.488 64.5824 71.4404 64.7728C71.3928 64.9633 71.3135 65.2965 71.2341 65.8202C72.948 65.6457 74.1859 65.4076 74.9317 65.1061L75.8363 65.725C75.9474 65.7885 75.995 65.852 75.995 65.8996C75.995 65.9472 75.9156 65.9789 75.7569 65.9948L71.1548 66.4074L70.9961 67.5183L71.3294 67.9309C71.377 67.9943 71.4087 68.0578 71.4087 68.0896C71.4087 68.1213 71.3611 68.153 71.25 68.1689L67.5207 68.5339V69.9463C69.4568 69.8035 70.7422 69.5813 71.377 69.2956L72.1546 69.8669C72.2339 69.9145 72.2815 69.9622 72.2815 70.0098C72.2815 70.0574 72.218 70.0732 72.107 70.0891L67.5366 70.5017L67.5524 71.9617ZM62.744 61.7894C61.9188 62.9637 60.8555 64.1222 59.5383 65.2331L59.3479 65.0109C60.6651 63.6937 61.6807 62.3924 62.4266 61.107C63.1566 59.8216 63.4898 58.8218 63.4105 58.1077L63.6485 58.0283L64.3627 59.3455C64.3944 59.3772 64.3944 59.4248 64.3944 59.4724C64.3944 59.5201 64.3468 59.5677 64.2516 59.6311C64.0929 59.7581 63.712 60.2818 63.0931 61.2181C65.3783 60.9007 66.6796 60.6309 67.0129 60.4246L67.6635 60.9166C67.7587 60.98 67.8063 61.0435 67.8063 61.0753C67.8063 61.107 67.7429 61.1387 67.6318 61.1546L64.0611 61.6148L65.3148 62.932C65.2514 63.2652 65.172 63.5192 65.0927 63.6937C65.0133 63.8683 64.934 63.9476 64.9022 63.9476C64.8705 63.9476 64.8229 63.9159 64.7911 63.8524L63.712 61.6624L62.744 61.7894ZM67.5524 64.9791V66.2011L70.5994 65.8996L70.7263 64.63L67.5524 64.9791ZM67.5524 66.7565V67.9785L70.4248 67.677L70.5518 66.4867L67.5524 66.7565Z" fill="#333333"/>
<path d="M16.9927 81.0872V82.5789H17.8179C18.0401 82.5789 18.1829 82.5471 18.2464 82.4837C18.3416 82.4043 18.4051 82.2456 18.4051 82.0393H18.5162V83.3565H18.4051C18.3733 83.1661 18.3575 83.055 18.3257 83.0074C18.294 82.9439 18.2305 82.8963 18.167 82.8487C18.1036 82.8011 17.9766 82.8011 17.8179 82.8011H16.9927V84.0548C16.9927 84.2134 16.9927 84.3245 17.0086 84.3563C17.0244 84.388 17.0562 84.4198 17.0879 84.4356C17.1197 84.4515 17.199 84.4674 17.2942 84.4674H17.929C18.1353 84.4674 18.294 84.4515 18.3892 84.4197C18.4844 84.388 18.5796 84.3245 18.6749 84.2452C18.7859 84.1341 18.9129 83.9595 19.024 83.7215H19.1351L18.8018 84.6737H15.8818V84.5626H16.0088C16.104 84.5626 16.1833 84.5467 16.2627 84.4991C16.3262 84.4674 16.3579 84.4198 16.3897 84.3721C16.4214 84.3245 16.4214 84.1976 16.4214 84.0071V81.5474C16.4214 81.3093 16.3897 81.1665 16.342 81.103C16.2786 81.0237 16.1675 80.9919 16.0088 80.9919H15.8818V80.8809H18.8018L18.8494 81.7061H18.7383C18.7066 81.5156 18.659 81.3728 18.6114 81.2935C18.5638 81.2141 18.5003 81.1665 18.4051 81.1189C18.3257 81.0872 18.1988 81.0713 18.0083 81.0713L16.9927 81.0872Z" fill="#333333"/>
<path d="M20.3408 80.6904V84.0865C20.3408 84.2452 20.3567 84.3563 20.3726 84.4039C20.3885 84.4515 20.4361 84.4991 20.4837 84.5308C20.5313 84.5626 20.6265 84.5626 20.7535 84.5626V84.6578H19.4998V84.5626C19.6108 84.5626 19.6902 84.5467 19.7378 84.5308C19.7854 84.515 19.8171 84.4674 19.833 84.4039C19.8489 84.3404 19.8648 84.2452 19.8648 84.0865V81.7537C19.8648 81.468 19.8648 81.2935 19.8489 81.23C19.833 81.1665 19.8171 81.1189 19.7854 81.103C19.7537 81.0872 19.7219 81.0713 19.6743 81.0713C19.6267 81.0713 19.5632 81.0872 19.4839 81.1189L19.4363 81.0237L20.198 80.7063L20.3408 80.6904Z" fill="#333333"/>
<path d="M21.4836 83.055C21.4836 83.4358 21.5789 83.7373 21.7534 83.9436C21.928 84.1499 22.1502 84.261 22.4041 84.261C22.5628 84.261 22.7215 84.2134 22.8484 84.1182C22.9754 84.023 23.0706 83.8643 23.1658 83.6421L23.2452 83.6897C23.2134 83.9436 23.0865 84.1817 22.9119 84.388C22.7373 84.5943 22.4834 84.7054 22.1978 84.7054C21.8963 84.7054 21.6265 84.5784 21.4043 84.3404C21.1821 84.1023 21.071 83.785 21.071 83.3723C21.071 82.928 21.1821 82.5947 21.4043 82.3567C21.6265 82.1187 21.9121 81.9917 22.2454 81.9917C22.531 81.9917 22.7691 82.0869 22.9595 82.2773C23.1499 82.4678 23.2293 82.7217 23.2293 83.0391H21.4836V83.055ZM21.4836 82.8963H22.6739C22.658 82.7376 22.6421 82.6106 22.6104 82.5471C22.5628 82.436 22.4993 82.3567 22.4041 82.3091C22.3089 82.2615 22.2136 82.2139 22.1184 82.2139C21.9597 82.2139 21.8328 82.2773 21.7058 82.3884C21.5789 82.4995 21.5154 82.69 21.4836 82.8963Z" fill="#333333"/>
<path d="M24.2766 83.7215C24.1179 83.6421 24.0068 83.531 23.9116 83.4041C23.8164 83.2771 23.7847 83.1184 23.7847 82.9439C23.7847 82.69 23.8799 82.4678 24.0703 82.2932C24.2608 82.1187 24.4988 82.0234 24.8003 82.0234C25.0384 82.0234 25.2605 82.0869 25.4351 82.198H25.9747C26.054 82.198 26.1016 82.198 26.1175 82.198C26.1334 82.198 26.1334 82.2139 26.1492 82.2297C26.1651 82.2456 26.1651 82.2773 26.1651 82.325C26.1651 82.3726 26.1651 82.4043 26.1492 82.4202C26.1492 82.436 26.1334 82.436 26.1175 82.436C26.1016 82.436 26.054 82.436 25.9747 82.436H25.6414C25.7525 82.563 25.8001 82.7376 25.8001 82.9439C25.8001 83.1819 25.7049 83.3882 25.5303 83.5469C25.3558 83.7056 25.1018 83.8008 24.8003 83.8008C24.6734 83.8008 24.5464 83.7849 24.4195 83.7532C24.3401 83.8326 24.2766 83.8802 24.2608 83.9436C24.2449 84.0071 24.2132 84.0389 24.2132 84.0706C24.2132 84.1023 24.229 84.1341 24.2608 84.1658C24.2925 84.1976 24.356 84.2134 24.4353 84.2293C24.4829 84.2293 24.6258 84.2452 24.8321 84.2452C25.2129 84.261 25.4668 84.261 25.5779 84.2769C25.7525 84.3086 25.8953 84.3721 25.9905 84.4673C26.0858 84.5625 26.1492 84.7054 26.1492 84.8482C26.1492 85.0545 26.054 85.2608 25.8477 85.4354C25.5621 85.7052 25.1812 85.848 24.7051 85.848C24.3401 85.848 24.0386 85.7686 23.8005 85.6099C23.6577 85.5147 23.5942 85.4195 23.5942 85.3243C23.5942 85.2767 23.6101 85.2291 23.626 85.1973C23.6577 85.1339 23.7212 85.0386 23.8164 84.9117C23.8323 84.8958 23.9275 84.8006 24.1021 84.6102C24.0068 84.5467 23.9434 84.4991 23.8958 84.4515C23.8482 84.4039 23.8323 84.3562 23.8323 84.2928C23.8323 84.2293 23.864 84.1499 23.9116 84.0706C23.9592 83.9912 24.0862 83.8802 24.2766 83.7215ZM24.2449 84.6578C24.1655 84.753 24.0862 84.8482 24.0545 84.9275C24.0227 85.0069 23.991 85.0862 23.991 85.1497C23.991 85.2449 24.0386 85.3084 24.1497 85.3878C24.3401 85.4989 24.6099 85.5623 24.959 85.5623C25.2923 85.5623 25.5462 85.4989 25.7049 85.3878C25.8636 85.2767 25.9429 85.1497 25.9429 85.0069C25.9429 84.9117 25.8953 84.8482 25.8001 84.8006C25.7049 84.753 25.5144 84.7371 25.2288 84.7212C24.8003 84.7054 24.4671 84.6895 24.2449 84.6578ZM24.7686 82.1504C24.6258 82.1504 24.5147 82.198 24.4195 82.3091C24.3242 82.4202 24.2766 82.5947 24.2766 82.8169C24.2766 83.1026 24.3401 83.3406 24.4671 83.4993C24.5623 83.6263 24.6892 83.6897 24.8321 83.6897C24.9749 83.6897 25.086 83.6421 25.1812 83.531C25.2764 83.42 25.324 83.2613 25.324 83.0232C25.324 82.7217 25.2605 82.4995 25.1336 82.325C25.0384 82.2139 24.9114 82.1504 24.7686 82.1504Z" fill="#333333"/>
<path d="M27.895 84.293C27.6253 84.4993 27.4666 84.6104 27.4031 84.6421C27.3079 84.6898 27.1968 84.7056 27.0857 84.7056C26.9111 84.7056 26.7683 84.6421 26.6414 84.5311C26.5144 84.42 26.4668 84.2454 26.4668 84.055C26.4668 83.928 26.4985 83.8169 26.5461 83.7376C26.6255 83.6106 26.7524 83.4995 26.9429 83.3885C27.1333 83.2774 27.4507 83.1346 27.8792 82.9759V82.8648C27.8792 82.6109 27.8474 82.4363 27.7522 82.3411C27.657 82.2459 27.5618 82.1982 27.4031 82.1982C27.292 82.1982 27.1968 82.23 27.1174 82.2935C27.0381 82.3569 27.0064 82.4363 27.0064 82.5156V82.6743C27.0064 82.7537 26.9905 82.833 26.9429 82.8648C26.8953 82.8965 26.8477 82.9282 26.7683 82.9282C26.7048 82.9282 26.6414 82.8965 26.5938 82.8489C26.5461 82.8013 26.5303 82.7378 26.5303 82.6585C26.5303 82.4998 26.6096 82.3569 26.7683 82.2141C26.927 82.0713 27.165 82.0078 27.4507 82.0078C27.6729 82.0078 27.8633 82.0396 28.0061 82.1189C28.1172 82.1824 28.1966 82.2617 28.2442 82.3887C28.2759 82.468 28.2918 82.6267 28.2918 82.8806V83.7535C28.2918 83.9915 28.2918 84.1502 28.3077 84.1978C28.3235 84.2454 28.3394 84.293 28.3553 84.3089C28.3711 84.3248 28.4029 84.3406 28.4346 84.3406C28.4663 84.3406 28.4822 84.3406 28.514 84.3248C28.5457 84.293 28.625 84.2295 28.7361 84.1185V84.2772C28.5298 84.5628 28.3235 84.6898 28.1331 84.6898C28.0379 84.6898 27.9744 84.658 27.9109 84.5945C27.8474 84.5311 27.895 84.4358 27.895 84.293ZM27.895 84.1026V83.1346C27.6094 83.2456 27.4348 83.325 27.3555 83.3726C27.2127 83.4519 27.1016 83.5313 27.0381 83.6265C26.9746 83.7217 26.9429 83.8169 26.9429 83.9121C26.9429 84.0391 26.9746 84.1502 27.0698 84.2454C27.1651 84.3406 27.2444 84.3724 27.3396 84.3724C27.4824 84.3882 27.6729 84.293 27.895 84.1026Z" fill="#333333"/>
<path d="M29.7356 82.563C30.0371 82.198 30.3228 82.0234 30.5926 82.0234C30.7354 82.0234 30.8465 82.0552 30.9576 82.1345C31.0687 82.2139 31.1321 82.325 31.1956 82.4836C31.2432 82.5947 31.2591 82.7693 31.2591 82.9915V84.0865C31.2591 84.2452 31.275 84.3562 31.2908 84.4197C31.3067 84.4673 31.3384 84.4991 31.386 84.5308C31.4337 84.5626 31.513 84.5626 31.64 84.5626V84.6578H30.3704V84.5626H30.418C30.545 84.5626 30.6243 84.5467 30.6719 84.5149C30.7195 84.4832 30.7513 84.4197 30.7671 84.3563C30.7671 84.3245 30.783 84.2452 30.783 84.0865V83.0391C30.783 82.801 30.7513 82.6423 30.6878 82.5313C30.6243 82.4202 30.5291 82.3726 30.3863 82.3726C30.1641 82.3726 29.9419 82.4995 29.7198 82.7376V84.0865C29.7198 84.261 29.7356 84.3721 29.7515 84.4039C29.7832 84.4515 29.815 84.4991 29.8626 84.5308C29.9102 84.5626 30.0054 84.5626 30.1482 84.5626V84.6578H28.8787V84.5626H28.9263C29.0532 84.5626 29.1484 84.5308 29.1961 84.4673C29.2437 84.4039 29.2595 84.2769 29.2595 84.0865V83.1343C29.2595 82.8328 29.2595 82.6423 29.2437 82.5789C29.2278 82.5154 29.2119 82.4678 29.1802 82.436C29.1484 82.4043 29.1167 82.4043 29.0691 82.4043C29.0215 82.4043 28.958 82.4202 28.8787 82.4519L28.8311 82.3567L29.5928 82.0393H29.7198L29.7356 82.563Z" fill="#333333"/>
<path d="M32.5925 81.2622V82.1033H33.1956V82.2937H32.5925V83.9441C32.5925 84.1028 32.6243 84.2298 32.6719 84.2774C32.7195 84.325 32.783 84.3568 32.8623 84.3568C32.9258 84.3568 32.9893 84.3409 33.0369 84.2933C33.0845 84.2457 33.1321 84.1981 33.1638 84.1187H33.2749C33.2115 84.3091 33.1162 84.4361 33.0051 84.5313C32.8941 84.6265 32.7671 84.6741 32.6402 84.6741C32.5608 84.6741 32.4656 84.6424 32.3862 84.5948C32.3069 84.5472 32.2434 84.4837 32.2117 84.3885C32.1799 84.2933 32.1482 84.1663 32.1482 83.9759V82.262H31.7197V82.1668C31.8149 82.1192 31.926 82.0557 32.0371 81.9605C32.1482 81.8652 32.2434 81.7542 32.3228 81.6113C32.3704 81.532 32.418 81.405 32.4973 81.2305L32.5925 81.2622Z" fill="#333333"/>
<path d="M37.306 80.7856V82.0869H37.1949C37.1631 81.833 37.0997 81.6426 37.0203 81.4839C36.941 81.3252 36.814 81.2141 36.6553 81.1348C36.4966 81.0554 36.3379 81.0078 36.1634 81.0078C35.9729 81.0078 35.8142 81.0713 35.6873 81.1824C35.5603 81.2935 35.4968 81.4363 35.4968 81.5791C35.4968 81.6902 35.5286 81.8013 35.6238 81.8965C35.7349 82.0393 36.0205 82.2139 36.449 82.4519C36.7981 82.6424 37.0521 82.7852 37.179 82.8963C37.306 83.0074 37.4012 83.1185 37.4805 83.2613C37.5599 83.4041 37.5916 83.5469 37.5916 83.6898C37.5916 83.9754 37.4805 84.2293 37.2584 84.4356C37.0362 84.6419 36.7505 84.753 36.4014 84.753C36.2903 84.753 36.1951 84.753 36.084 84.7213C36.0205 84.7054 35.9094 84.6737 35.719 84.626C35.5286 84.5784 35.4175 84.5467 35.3699 84.5467C35.3223 84.5467 35.2905 84.5626 35.2588 84.5943C35.2271 84.6261 35.2112 84.6737 35.1953 84.7689H35.0842V83.4676H35.1953C35.2429 83.7374 35.3064 83.9437 35.3857 84.0706C35.4651 84.1976 35.5921 84.3245 35.7666 84.4039C35.9412 84.4832 36.1157 84.5308 36.3221 84.5308C36.5601 84.5308 36.7347 84.4674 36.8775 84.3404C37.0203 84.2134 37.0838 84.0706 37.0838 83.9119C37.0838 83.8167 37.052 83.7215 37.0044 83.6263C36.9568 83.5311 36.8775 83.4358 36.7664 83.3565C36.687 83.3089 36.4966 83.1819 36.1792 83.0074C35.8618 82.8328 35.6238 82.69 35.4968 82.5789C35.3699 82.4678 35.2588 82.3567 35.1794 82.2298C35.1001 82.1028 35.0684 81.96 35.0684 81.8013C35.0684 81.5315 35.1794 81.2935 35.3857 81.103C35.5921 80.9126 35.8618 80.8174 36.1792 80.8174C36.3855 80.8174 36.5918 80.865 36.814 80.9602C36.9251 81.0078 36.9886 81.0237 37.0362 81.0237C37.0838 81.0237 37.1155 81.0078 37.1631 80.9761C37.2107 80.9443 37.2107 80.8967 37.2425 80.8015L37.306 80.7856Z" fill="#333333"/>
<path d="M40.21 83.6897C40.1465 84.023 40.0037 84.2928 39.8133 84.4673C39.6228 84.6419 39.3848 84.7371 39.1467 84.7371C38.8611 84.7371 38.6072 84.6102 38.385 84.3721C38.1628 84.1341 38.0676 83.8008 38.0676 83.3882C38.0676 82.9915 38.1946 82.6582 38.4326 82.4043C38.6707 82.1504 38.9563 82.0234 39.2896 82.0234C39.5435 82.0234 39.7498 82.0869 39.9085 82.2297C40.0672 82.3726 40.1465 82.4995 40.1465 82.6423C40.1465 82.7217 40.1307 82.7693 40.0831 82.8169C40.0354 82.8645 39.972 82.8804 39.8926 82.8804C39.7815 82.8804 39.7022 82.8487 39.6387 82.7693C39.607 82.7376 39.5911 82.6582 39.5752 82.5471C39.5594 82.436 39.5276 82.3567 39.4641 82.2932C39.4007 82.2456 39.3054 82.2139 39.1944 82.2139C39.0039 82.2139 38.8611 82.2773 38.75 82.4202C38.5913 82.6106 38.5278 82.8486 38.5278 83.1343C38.5278 83.4358 38.6072 83.7056 38.75 83.9436C38.8928 84.1817 39.0991 84.2928 39.353 84.2928C39.5435 84.2928 39.7022 84.2293 39.845 84.1023C39.9402 84.023 40.0513 83.8643 40.1465 83.6421L40.21 83.6897Z" fill="#333333"/>
<path d="M41.3206 82.0234V82.5947C41.5269 82.2139 41.749 82.0234 41.9871 82.0234C42.0823 82.0234 42.1775 82.0552 42.241 82.1187C42.3045 82.1821 42.3362 82.2456 42.3362 82.3408C42.3362 82.4202 42.3045 82.4678 42.2569 82.5313C42.2093 82.5947 42.1458 82.6106 42.0823 82.6106C42.0188 82.6106 41.9395 82.5789 41.8601 82.5154C41.7808 82.4519 41.7173 82.4202 41.6856 82.4202C41.6538 82.4202 41.6221 82.436 41.5745 82.4678C41.4951 82.5471 41.3999 82.6741 41.3206 82.8487V84.0706C41.3206 84.2134 41.3364 84.3245 41.3682 84.388C41.3999 84.4356 41.4317 84.4832 41.4951 84.5149C41.5586 84.5467 41.638 84.5626 41.7649 84.5626V84.6578H40.4636V84.5626C40.5906 84.5626 40.6858 84.5467 40.7493 84.4991C40.7969 84.4673 40.8286 84.4197 40.8445 84.3563C40.8604 84.3245 40.8604 84.2293 40.8604 84.0865V83.1026C40.8604 82.801 40.8604 82.6265 40.8445 82.5789C40.8286 82.5313 40.8127 82.4837 40.781 82.4519C40.7493 82.4202 40.7017 82.4202 40.6541 82.4202C40.5906 82.4202 40.5271 82.436 40.4636 82.4678L40.4319 82.3726L41.2095 82.0552L41.3206 82.0234Z" fill="#333333"/>
<path d="M43.3516 82.0235V84.0706C43.3516 84.2293 43.3674 84.3404 43.3833 84.388C43.3992 84.4356 43.4468 84.4832 43.4944 84.515C43.542 84.5467 43.6214 84.5467 43.7483 84.5467V84.6419H42.5105V84.5467C42.6375 84.5467 42.7168 84.5308 42.7644 84.515C42.812 84.4991 42.8438 84.4515 42.8596 84.388C42.8755 84.3245 42.8914 84.2293 42.8914 84.0706V83.0867C42.8914 82.8011 42.8914 82.6265 42.8596 82.5472C42.8438 82.4837 42.8279 82.4519 42.7961 82.4202C42.7644 82.3885 42.7327 82.3885 42.6851 82.3885C42.6374 82.3885 42.574 82.4043 42.4946 82.4361L42.4629 82.3409L43.2246 82.0235H43.3516ZM43.1294 80.6904C43.2088 80.6904 43.2722 80.7222 43.3357 80.7698C43.3992 80.8174 43.4151 80.8967 43.4151 80.9761C43.4151 81.0554 43.3833 81.1189 43.3357 81.1824C43.2881 81.2459 43.2088 81.2617 43.1294 81.2617C43.0501 81.2617 42.9866 81.23 42.9231 81.1824C42.8596 81.1348 42.8438 81.0554 42.8438 80.9761C42.8438 80.8967 42.8755 80.8333 42.9231 80.7698C42.9707 80.7063 43.0501 80.6904 43.1294 80.6904Z" fill="#333333"/>
<path d="M43.8757 82.3569L44.6692 82.0396H44.7803V82.6426C44.9072 82.4204 45.0501 82.2617 45.177 82.1665C45.304 82.0713 45.4468 82.0396 45.6055 82.0396C45.8594 82.0396 46.0816 82.1348 46.2403 82.3411C46.4466 82.5791 46.5577 82.9124 46.5577 83.2932C46.5577 83.7376 46.4307 84.1026 46.1768 84.3882C45.9705 84.6263 45.7007 84.7374 45.3833 84.7374C45.2405 84.7374 45.1294 84.7215 45.0342 84.6739C44.9549 84.6421 44.8755 84.5945 44.7803 84.5152V85.2928C44.7803 85.4674 44.7962 85.5784 44.812 85.6261C44.8279 85.6737 44.8755 85.7054 44.9231 85.7371C44.9707 85.7689 45.0659 85.7848 45.2088 85.7848V85.8958H43.8757V85.7848H43.9392C44.0344 85.7848 44.1296 85.7689 44.209 85.7213C44.2407 85.7054 44.2725 85.6737 44.2883 85.6261C44.3042 85.5784 44.3201 85.4674 44.3201 85.2769V82.8648C44.3201 82.7061 44.3201 82.595 44.3042 82.5474C44.2883 82.4998 44.2725 82.468 44.2249 82.4522C44.1773 82.4363 44.1455 82.4204 44.0979 82.4204C44.0503 82.4204 44.0027 82.4363 43.9233 82.4522L43.8757 82.3569ZM44.7644 82.8013V83.7535C44.7644 83.9598 44.7644 84.1026 44.7962 84.1661C44.8279 84.2771 44.8914 84.3724 44.9866 84.4517C45.0818 84.5311 45.2088 84.5787 45.3675 84.5787C45.5579 84.5787 45.7007 84.4993 45.8118 84.3565C45.9705 84.1661 46.034 83.8963 46.034 83.563C46.034 83.1663 45.9546 82.8806 45.7801 82.6585C45.6531 82.5156 45.5262 82.4363 45.3516 82.4363C45.2564 82.4363 45.177 82.4522 45.0818 82.4998C45.0342 82.5315 44.9231 82.6267 44.7644 82.8013Z" fill="#333333"/>
<path d="M47.6525 81.2622V82.1033H48.2555V82.2937H47.6525V83.9441C47.6525 84.1028 47.6842 84.2298 47.7318 84.2774C47.7794 84.325 47.8429 84.3568 47.9223 84.3568C47.9857 84.3568 48.0492 84.3409 48.0968 84.2933C48.1444 84.2457 48.192 84.1981 48.2238 84.1187H48.3349C48.2714 84.3091 48.1762 84.4361 48.0651 84.5313C47.954 84.6265 47.827 84.6741 47.7001 84.6741C47.6207 84.6741 47.5255 84.6424 47.4462 84.5948C47.3668 84.5472 47.3034 84.4837 47.2716 84.3885C47.2399 84.2933 47.2081 84.1663 47.2081 83.9759V82.262H46.7955V82.1668C46.8907 82.1192 47.0018 82.0557 47.1129 81.9605C47.224 81.8652 47.3192 81.7542 47.3986 81.6113C47.4462 81.532 47.4938 81.405 47.5731 81.2305L47.6525 81.2622Z" fill="#333333"/>
<path d="M50.9215 82.8804V83.9754C50.9215 84.2135 50.9533 84.3563 51.0009 84.4198C51.0802 84.4991 51.1754 84.5467 51.3183 84.5467H51.4611V84.6578H49.8424V84.5467H49.9852C50.1439 84.5467 50.255 84.4991 50.3344 84.388C50.3661 84.3245 50.382 84.1976 50.382 83.9754V81.5315C50.382 81.2935 50.3502 81.1506 50.3026 81.0872C50.2233 81.0078 50.1281 80.9602 49.9852 80.9602H49.8424V80.8491H51.2231C51.5563 80.8491 51.8261 80.8809 52.0165 80.9602C52.207 81.0396 52.3815 81.1506 52.5085 81.3093C52.6354 81.468 52.7148 81.6743 52.7148 81.8965C52.7148 82.2139 52.6196 82.4519 52.4133 82.6582C52.207 82.8645 51.9213 82.9439 51.5563 82.9439C51.4611 82.9439 51.3659 82.9439 51.2548 82.928C51.1437 82.9122 51.0485 82.9122 50.9215 82.8804ZM50.9215 82.7217C51.0167 82.7376 51.112 82.7535 51.1913 82.7693C51.2707 82.7852 51.3341 82.7852 51.3817 82.7852C51.5722 82.7852 51.7467 82.7058 51.8896 82.563C52.0324 82.4202 52.0959 82.2139 52.0959 81.9759C52.0959 81.8172 52.0641 81.6585 52.0007 81.5156C51.9372 81.3728 51.842 81.2776 51.715 81.1983C51.588 81.1189 51.4452 81.0872 51.3024 81.0872C51.2072 81.0872 51.0802 81.103 50.9374 81.1348L50.9215 82.7217Z" fill="#333333"/>
<path d="M53.5399 83.055C53.5399 83.4358 53.6351 83.7373 53.8097 83.9436C53.9843 84.1499 54.2064 84.261 54.4603 84.261C54.619 84.261 54.7777 84.2134 54.9047 84.1182C55.0316 84.023 55.1269 83.8643 55.2221 83.6421L55.3014 83.6897C55.2697 83.9436 55.1427 84.1817 54.9682 84.388C54.7936 84.5943 54.5397 84.7054 54.254 84.7054C53.9525 84.7054 53.6827 84.5784 53.4606 84.3404C53.2384 84.1023 53.1273 83.785 53.1273 83.3723C53.1273 82.928 53.2384 82.5947 53.4606 82.3567C53.6827 82.1187 53.9684 81.9917 54.3017 81.9917C54.5873 81.9917 54.8253 82.0869 55.0158 82.2773C55.2062 82.4678 55.2856 82.7217 55.2856 83.0391H53.5399V83.055ZM53.5399 82.8963H54.7301C54.7143 82.7376 54.6984 82.6106 54.6666 82.5471C54.619 82.436 54.5556 82.3567 54.4603 82.3091C54.3651 82.2615 54.2699 82.2139 54.1747 82.2139C54.016 82.2139 53.8891 82.2773 53.7621 82.3884C53.6351 82.4995 53.5558 82.69 53.5399 82.8963Z" fill="#333333"/>
<path d="M56.3965 82.563C56.698 82.198 56.9837 82.0234 57.2535 82.0234C57.3963 82.0234 57.5074 82.0552 57.6185 82.1345C57.7295 82.2139 57.793 82.325 57.8565 82.4836C57.9041 82.5947 57.92 82.7693 57.92 82.9915V84.0865C57.92 84.2452 57.9358 84.3562 57.9517 84.4197C57.9676 84.4673 57.9993 84.4991 58.0469 84.5308C58.0945 84.5626 58.1739 84.5626 58.3008 84.5626V84.6578H57.0313V84.5626H57.0789C57.2058 84.5626 57.2852 84.5467 57.3328 84.5149C57.3804 84.4832 57.4122 84.4197 57.428 84.3563C57.428 84.3245 57.4439 84.2452 57.4439 84.0865V83.0391C57.4439 82.801 57.4122 82.6423 57.3487 82.5313C57.2852 82.4202 57.19 82.3726 57.0471 82.3726C56.825 82.3726 56.6028 82.4995 56.3806 82.7376V84.0865C56.3806 84.261 56.3965 84.3721 56.4124 84.4039C56.4441 84.4515 56.4759 84.4991 56.5235 84.5308C56.5711 84.5626 56.6663 84.5626 56.8091 84.5626V84.6578H55.5395V84.5626H55.5872C55.7141 84.5626 55.8093 84.5308 55.8569 84.4673C55.9045 84.4039 55.9204 84.2769 55.9204 84.0865V83.1343C55.9204 82.8328 55.9204 82.6423 55.9046 82.5789C55.8887 82.5154 55.8728 82.4678 55.8411 82.436C55.8093 82.4043 55.7776 82.4043 55.73 82.4043C55.6824 82.4043 55.6189 82.4202 55.5395 82.4519L55.4919 82.3567L56.2537 82.0393H56.3806L56.3965 82.563Z" fill="#333333"/>
<path d="M60.1577 82.0234V82.8963H60.0625C59.9832 82.6265 59.9038 82.436 59.7927 82.3408C59.6817 82.2456 59.5388 82.198 59.3643 82.198C59.2373 82.198 59.1262 82.2297 59.0469 82.3091C58.9675 82.3884 58.9199 82.4519 58.9199 82.5313C58.9199 82.6423 58.9517 82.7217 59.0151 82.801C59.0786 82.8804 59.1897 82.9597 59.3643 83.0391L59.7769 83.2295C60.1577 83.4199 60.3482 83.658 60.3482 83.9595C60.3482 84.1976 60.2688 84.388 60.0784 84.5149C59.888 84.6419 59.7134 84.7212 59.4912 84.7212C59.3325 84.7212 59.158 84.6895 58.9517 84.6419C58.8882 84.626 58.8406 84.6102 58.793 84.6102C58.7454 84.6102 58.7136 84.6419 58.6978 84.6895H58.6025V83.7691H58.6978C58.7454 84.023 58.8565 84.2293 58.9993 84.3563C59.1421 84.4832 59.3167 84.5467 59.4912 84.5467C59.6182 84.5467 59.7293 84.5149 59.8086 84.4356C59.888 84.3563 59.9356 84.2769 59.9356 84.1658C59.9356 84.0389 59.888 83.9278 59.8086 83.8484C59.7293 83.7691 59.5388 83.658 59.269 83.5152C58.9993 83.3723 58.8247 83.2613 58.7454 83.1502C58.666 83.0391 58.6184 82.9121 58.6184 82.7534C58.6184 82.5471 58.6978 82.3726 58.8406 82.2297C58.9834 82.0869 59.1738 82.0234 59.396 82.0234C59.4912 82.0234 59.6182 82.0393 59.761 82.0869C59.8562 82.1186 59.9197 82.1345 59.9514 82.1345C59.9832 82.1345 59.999 82.1345 60.0149 82.1187C60.0308 82.1028 60.0467 82.071 60.0784 82.0393L60.1577 82.0234Z" fill="#333333"/>
<path d="M58.4117 35.9067V44.143C58.4117 46.1584 56.7772 47.793 54.7618 47.793H46.5255L58.4117 35.9067Z" fill="#333333"/>
<path d="M58.4117 10.8804V19.1167L46.5255 7.23047H54.7618C56.7772 7.23047 58.4117 8.86502 58.4117 10.8804Z" fill="#333333"/>
<path d="M29.7354 7.23047L17.8491 19.1167V10.8804C17.8491 8.86502 19.4837 7.23047 21.4991 7.23047H29.7354Z" fill="#333333"/>
<path d="M29.7354 47.7925H21.4991C19.4837 47.7925 17.8491 46.1579 17.8491 44.1425V35.9062L29.7354 47.7925Z" fill="#333333"/>
<path d="M54.7622 48.0311H21.4998C19.3575 48.0311 17.6118 46.2855 17.6118 44.1431V10.8807C17.6118 8.73832 19.3575 6.99268 21.4998 6.99268H54.7622C56.9046 6.99268 58.6503 8.73832 58.6503 10.8807V44.1431C58.6503 46.2855 56.9046 48.0311 54.7622 48.0311ZM21.4998 7.46876C19.6114 7.46876 18.0879 8.99223 18.0879 10.8807V44.1431C18.0879 46.0316 19.6114 47.555 21.4998 47.555H54.7622C56.6507 47.555 58.1742 46.0316 58.1742 44.1431V10.8807C58.1742 8.99223 56.6507 7.46876 54.7622 7.46876H21.4998Z" fill="#333333"/>
<path d="M38.1314 54.9186C37.0999 54.9186 36.116 54.5219 35.386 53.776L11.8516 30.2575C11.1216 29.5275 10.709 28.5436 10.709 27.512C10.709 26.4805 11.1057 25.4966 11.8516 24.7666L35.3701 1.24807C36.1001 0.518074 37.084 0.105469 38.1156 0.105469C39.1471 0.105469 40.131 0.502205 40.861 1.24807L64.4113 24.7508C65.9347 26.2742 65.9347 28.734 64.4113 30.2575L40.8768 53.776C40.1468 54.5219 39.1788 54.9186 38.1314 54.9186ZM38.1314 0.565684C37.2269 0.565684 36.3699 0.914811 35.7193 1.56546L12.2007 25.0999C11.5501 25.7505 11.2009 26.6075 11.2009 27.512C11.2009 28.4166 11.5501 29.2736 12.2007 29.9242L35.7193 53.4428C36.3699 54.0934 37.2269 54.4425 38.1314 54.4425C39.036 54.4425 39.8929 54.0934 40.5436 53.4428L64.0621 29.9242C65.3952 28.5912 65.3952 26.4329 64.0621 25.0999L40.5436 1.56546C39.8929 0.930681 39.036 0.565684 38.1314 0.565684Z" fill="#333333"/>
</svg>
